<mxfile host="app.diagrams.net" modified="2020-09-02T19:47:28.180Z" agent="5.0 (Windows NT 10.0; Win64; x64) AppleWebKit/537.36 (KHTML, like Gecko) Chrome/85.0.4183.83 Safari/537.36" etag="i8OMRimUchPndNoIErDQ" version="13.6.5" type="github">
  <diagram id="R2lEEEUBdFMjLlhIrx00" name="Page-1">
    <mxGraphModel dx="1019" dy="519" grid="1" gridSize="10" guides="1" tooltips="1" connect="1" arrows="1" fold="1" page="1" pageScale="1" pageWidth="850" pageHeight="1100" math="0" shadow="0" extFonts="Permanent Marker^https://fonts.googleapis.com/css?family=Permanent+Marker">
      <root>
        <mxCell id="0" />
        <mxCell id="1" parent="0" />
        <mxCell id="V22qCot4A9_ZoTTdL6wH-40" value="TIPO" style="shape=table;startSize=30;container=1;collapsible=1;childLayout=tableLayout;fixedRows=1;rowLines=0;fontStyle=1;align=center;resizeLast=1;" vertex="1" parent="1">
          <mxGeometry x="610" y="40" width="180" height="120" as="geometry" />
        </mxCell>
        <mxCell id="V22qCot4A9_ZoTTdL6wH-41" value="" style="shape=partialRectangle;collapsible=0;dropTarget=0;pointerEvents=0;fillColor=none;top=0;left=0;bottom=1;right=0;points=[[0,0.5],[1,0.5]];portConstraint=eastwest;" vertex="1" parent="V22qCot4A9_ZoTTdL6wH-40">
          <mxGeometry y="30" width="180" height="30" as="geometry" />
        </mxCell>
        <mxCell id="V22qCot4A9_ZoTTdL6wH-42" value="PK" style="shape=partialRectangle;connectable=0;fillColor=none;top=0;left=0;bottom=0;right=0;fontStyle=1;overflow=hidden;" vertex="1" parent="V22qCot4A9_ZoTTdL6wH-41">
          <mxGeometry width="30" height="30" as="geometry" />
        </mxCell>
        <mxCell id="V22qCot4A9_ZoTTdL6wH-43" value="NOMBRE" style="shape=partialRectangle;connectable=0;fillColor=none;top=0;left=0;bottom=0;right=0;align=left;spacingLeft=6;fontStyle=5;overflow=hidden;" vertex="1" parent="V22qCot4A9_ZoTTdL6wH-41">
          <mxGeometry x="30" width="150" height="30" as="geometry" />
        </mxCell>
        <mxCell id="V22qCot4A9_ZoTTdL6wH-44" value="" style="shape=partialRectangle;collapsible=0;dropTarget=0;pointerEvents=0;fillColor=none;top=0;left=0;bottom=0;right=0;points=[[0,0.5],[1,0.5]];portConstraint=eastwest;" vertex="1" parent="V22qCot4A9_ZoTTdL6wH-40">
          <mxGeometry y="60" width="180" height="30" as="geometry" />
        </mxCell>
        <mxCell id="V22qCot4A9_ZoTTdL6wH-45" value="" style="shape=partialRectangle;connectable=0;fillColor=none;top=0;left=0;bottom=0;right=0;editable=1;overflow=hidden;" vertex="1" parent="V22qCot4A9_ZoTTdL6wH-44">
          <mxGeometry width="30" height="30" as="geometry" />
        </mxCell>
        <mxCell id="V22qCot4A9_ZoTTdL6wH-46" value="CARACTERISTICAS" style="shape=partialRectangle;connectable=0;fillColor=none;top=0;left=0;bottom=0;right=0;align=left;spacingLeft=6;overflow=hidden;" vertex="1" parent="V22qCot4A9_ZoTTdL6wH-44">
          <mxGeometry x="30" width="150" height="30" as="geometry" />
        </mxCell>
        <mxCell id="V22qCot4A9_ZoTTdL6wH-47" value="" style="shape=partialRectangle;collapsible=0;dropTarget=0;pointerEvents=0;fillColor=none;top=0;left=0;bottom=0;right=0;points=[[0,0.5],[1,0.5]];portConstraint=eastwest;" vertex="1" parent="V22qCot4A9_ZoTTdL6wH-40">
          <mxGeometry y="90" width="180" height="20" as="geometry" />
        </mxCell>
        <mxCell id="V22qCot4A9_ZoTTdL6wH-48" value="" style="shape=partialRectangle;connectable=0;fillColor=none;top=0;left=0;bottom=0;right=0;editable=1;overflow=hidden;" vertex="1" parent="V22qCot4A9_ZoTTdL6wH-47">
          <mxGeometry width="30" height="20" as="geometry" />
        </mxCell>
        <mxCell id="V22qCot4A9_ZoTTdL6wH-49" value="" style="shape=partialRectangle;connectable=0;fillColor=none;top=0;left=0;bottom=0;right=0;align=left;spacingLeft=6;overflow=hidden;" vertex="1" parent="V22qCot4A9_ZoTTdL6wH-47">
          <mxGeometry x="30" width="150" height="20" as="geometry" />
        </mxCell>
        <mxCell id="V22qCot4A9_ZoTTdL6wH-14" value="APARATO" style="shape=table;startSize=30;container=1;collapsible=1;childLayout=tableLayout;fixedRows=1;rowLines=0;fontStyle=1;align=center;resizeLast=1;" vertex="1" parent="1">
          <mxGeometry x="250" y="40" width="180" height="120" as="geometry" />
        </mxCell>
        <mxCell id="V22qCot4A9_ZoTTdL6wH-15" value="" style="shape=partialRectangle;collapsible=0;dropTarget=0;pointerEvents=0;fillColor=none;top=0;left=0;bottom=1;right=0;points=[[0,0.5],[1,0.5]];portConstraint=eastwest;" vertex="1" parent="V22qCot4A9_ZoTTdL6wH-14">
          <mxGeometry y="30" width="180" height="30" as="geometry" />
        </mxCell>
        <mxCell id="V22qCot4A9_ZoTTdL6wH-16" value="PK" style="shape=partialRectangle;connectable=0;fillColor=none;top=0;left=0;bottom=0;right=0;fontStyle=1;overflow=hidden;" vertex="1" parent="V22qCot4A9_ZoTTdL6wH-15">
          <mxGeometry width="30" height="30" as="geometry" />
        </mxCell>
        <mxCell id="V22qCot4A9_ZoTTdL6wH-17" value="CODIGO" style="shape=partialRectangle;connectable=0;fillColor=none;top=0;left=0;bottom=0;right=0;align=left;spacingLeft=6;fontStyle=5;overflow=hidden;" vertex="1" parent="V22qCot4A9_ZoTTdL6wH-15">
          <mxGeometry x="30" width="150" height="30" as="geometry" />
        </mxCell>
        <mxCell id="V22qCot4A9_ZoTTdL6wH-18" value="" style="shape=partialRectangle;collapsible=0;dropTarget=0;pointerEvents=0;fillColor=none;top=0;left=0;bottom=0;right=0;points=[[0,0.5],[1,0.5]];portConstraint=eastwest;" vertex="1" parent="V22qCot4A9_ZoTTdL6wH-14">
          <mxGeometry y="60" width="180" height="30" as="geometry" />
        </mxCell>
        <mxCell id="V22qCot4A9_ZoTTdL6wH-19" value="" style="shape=partialRectangle;connectable=0;fillColor=none;top=0;left=0;bottom=0;right=0;editable=1;overflow=hidden;" vertex="1" parent="V22qCot4A9_ZoTTdL6wH-18">
          <mxGeometry width="30" height="30" as="geometry" />
        </mxCell>
        <mxCell id="V22qCot4A9_ZoTTdL6wH-20" value="DESCRIPCION" style="shape=partialRectangle;connectable=0;fillColor=none;top=0;left=0;bottom=0;right=0;align=left;spacingLeft=6;overflow=hidden;" vertex="1" parent="V22qCot4A9_ZoTTdL6wH-18">
          <mxGeometry x="30" width="150" height="30" as="geometry" />
        </mxCell>
        <mxCell id="V22qCot4A9_ZoTTdL6wH-21" value="" style="shape=partialRectangle;collapsible=0;dropTarget=0;pointerEvents=0;fillColor=none;top=0;left=0;bottom=0;right=0;points=[[0,0.5],[1,0.5]];portConstraint=eastwest;" vertex="1" parent="V22qCot4A9_ZoTTdL6wH-14">
          <mxGeometry y="90" width="180" height="30" as="geometry" />
        </mxCell>
        <mxCell id="V22qCot4A9_ZoTTdL6wH-22" value="FK" style="shape=partialRectangle;connectable=0;fillColor=none;top=0;left=0;bottom=0;right=0;editable=1;overflow=hidden;" vertex="1" parent="V22qCot4A9_ZoTTdL6wH-21">
          <mxGeometry width="30" height="30" as="geometry" />
        </mxCell>
        <mxCell id="V22qCot4A9_ZoTTdL6wH-23" value="NOMBRE_TIPO" style="shape=partialRectangle;connectable=0;fillColor=none;top=0;left=0;bottom=0;right=0;align=left;spacingLeft=6;overflow=hidden;" vertex="1" parent="V22qCot4A9_ZoTTdL6wH-21">
          <mxGeometry x="30" width="150" height="30" as="geometry" />
        </mxCell>
        <mxCell id="V22qCot4A9_ZoTTdL6wH-1" value="FABRICANTE" style="shape=table;startSize=30;container=1;collapsible=1;childLayout=tableLayout;fixedRows=1;rowLines=0;fontStyle=1;align=center;resizeLast=1;" vertex="1" parent="1">
          <mxGeometry x="640" y="280" width="180" height="120" as="geometry" />
        </mxCell>
        <mxCell id="V22qCot4A9_ZoTTdL6wH-2" value="" style="shape=partialRectangle;collapsible=0;dropTarget=0;pointerEvents=0;fillColor=none;top=0;left=0;bottom=1;right=0;points=[[0,0.5],[1,0.5]];portConstraint=eastwest;" vertex="1" parent="V22qCot4A9_ZoTTdL6wH-1">
          <mxGeometry y="30" width="180" height="30" as="geometry" />
        </mxCell>
        <mxCell id="V22qCot4A9_ZoTTdL6wH-3" value="PK" style="shape=partialRectangle;connectable=0;fillColor=none;top=0;left=0;bottom=0;right=0;fontStyle=1;overflow=hidden;" vertex="1" parent="V22qCot4A9_ZoTTdL6wH-2">
          <mxGeometry width="30" height="30" as="geometry" />
        </mxCell>
        <mxCell id="V22qCot4A9_ZoTTdL6wH-4" value="CID" style="shape=partialRectangle;connectable=0;fillColor=none;top=0;left=0;bottom=0;right=0;align=left;spacingLeft=6;fontStyle=5;overflow=hidden;" vertex="1" parent="V22qCot4A9_ZoTTdL6wH-2">
          <mxGeometry x="30" width="150" height="30" as="geometry" />
        </mxCell>
        <mxCell id="V22qCot4A9_ZoTTdL6wH-5" value="" style="shape=partialRectangle;collapsible=0;dropTarget=0;pointerEvents=0;fillColor=none;top=0;left=0;bottom=0;right=0;points=[[0,0.5],[1,0.5]];portConstraint=eastwest;" vertex="1" parent="V22qCot4A9_ZoTTdL6wH-1">
          <mxGeometry y="60" width="180" height="30" as="geometry" />
        </mxCell>
        <mxCell id="V22qCot4A9_ZoTTdL6wH-6" value="" style="shape=partialRectangle;connectable=0;fillColor=none;top=0;left=0;bottom=0;right=0;editable=1;overflow=hidden;" vertex="1" parent="V22qCot4A9_ZoTTdL6wH-5">
          <mxGeometry width="30" height="30" as="geometry" />
        </mxCell>
        <mxCell id="V22qCot4A9_ZoTTdL6wH-7" value="DOMICILIO SOCIAL" style="shape=partialRectangle;connectable=0;fillColor=none;top=0;left=0;bottom=0;right=0;align=left;spacingLeft=6;overflow=hidden;" vertex="1" parent="V22qCot4A9_ZoTTdL6wH-5">
          <mxGeometry x="30" width="150" height="30" as="geometry" />
        </mxCell>
        <mxCell id="V22qCot4A9_ZoTTdL6wH-8" value="" style="shape=partialRectangle;collapsible=0;dropTarget=0;pointerEvents=0;fillColor=none;top=0;left=0;bottom=0;right=0;points=[[0,0.5],[1,0.5]];portConstraint=eastwest;" vertex="1" parent="V22qCot4A9_ZoTTdL6wH-1">
          <mxGeometry y="90" width="180" height="20" as="geometry" />
        </mxCell>
        <mxCell id="V22qCot4A9_ZoTTdL6wH-9" value="" style="shape=partialRectangle;connectable=0;fillColor=none;top=0;left=0;bottom=0;right=0;editable=1;overflow=hidden;" vertex="1" parent="V22qCot4A9_ZoTTdL6wH-8">
          <mxGeometry width="30" height="20" as="geometry" />
        </mxCell>
        <mxCell id="V22qCot4A9_ZoTTdL6wH-10" value="" style="shape=partialRectangle;connectable=0;fillColor=none;top=0;left=0;bottom=0;right=0;align=left;spacingLeft=6;overflow=hidden;" vertex="1" parent="V22qCot4A9_ZoTTdL6wH-8">
          <mxGeometry x="30" width="150" height="20" as="geometry" />
        </mxCell>
        <mxCell id="V22qCot4A9_ZoTTdL6wH-27" value="COMPONENTES" style="shape=table;startSize=30;container=1;collapsible=1;childLayout=tableLayout;fixedRows=1;rowLines=0;fontStyle=1;align=center;resizeLast=1;" vertex="1" parent="1">
          <mxGeometry x="380" y="280" width="180" height="160" as="geometry" />
        </mxCell>
        <mxCell id="V22qCot4A9_ZoTTdL6wH-28" value="" style="shape=partialRectangle;collapsible=0;dropTarget=0;pointerEvents=0;fillColor=none;top=0;left=0;bottom=1;right=0;points=[[0,0.5],[1,0.5]];portConstraint=eastwest;" vertex="1" parent="V22qCot4A9_ZoTTdL6wH-27">
          <mxGeometry y="30" width="180" height="30" as="geometry" />
        </mxCell>
        <mxCell id="V22qCot4A9_ZoTTdL6wH-29" value="PK" style="shape=partialRectangle;connectable=0;fillColor=none;top=0;left=0;bottom=0;right=0;fontStyle=1;overflow=hidden;" vertex="1" parent="V22qCot4A9_ZoTTdL6wH-28">
          <mxGeometry width="30" height="30" as="geometry" />
        </mxCell>
        <mxCell id="V22qCot4A9_ZoTTdL6wH-30" value="ID_COMPONENTE" style="shape=partialRectangle;connectable=0;fillColor=none;top=0;left=0;bottom=0;right=0;align=left;spacingLeft=6;fontStyle=5;overflow=hidden;" vertex="1" parent="V22qCot4A9_ZoTTdL6wH-28">
          <mxGeometry x="30" width="150" height="30" as="geometry" />
        </mxCell>
        <mxCell id="V22qCot4A9_ZoTTdL6wH-31" value="" style="shape=partialRectangle;collapsible=0;dropTarget=0;pointerEvents=0;fillColor=none;top=0;left=0;bottom=0;right=0;points=[[0,0.5],[1,0.5]];portConstraint=eastwest;" vertex="1" parent="V22qCot4A9_ZoTTdL6wH-27">
          <mxGeometry y="60" width="180" height="30" as="geometry" />
        </mxCell>
        <mxCell id="V22qCot4A9_ZoTTdL6wH-32" value="" style="shape=partialRectangle;connectable=0;fillColor=none;top=0;left=0;bottom=0;right=0;editable=1;overflow=hidden;" vertex="1" parent="V22qCot4A9_ZoTTdL6wH-31">
          <mxGeometry width="30" height="30" as="geometry" />
        </mxCell>
        <mxCell id="V22qCot4A9_ZoTTdL6wH-33" value="NOMBRE" style="shape=partialRectangle;connectable=0;fillColor=none;top=0;left=0;bottom=0;right=0;align=left;spacingLeft=6;overflow=hidden;" vertex="1" parent="V22qCot4A9_ZoTTdL6wH-31">
          <mxGeometry x="30" width="150" height="30" as="geometry" />
        </mxCell>
        <mxCell id="V22qCot4A9_ZoTTdL6wH-34" value="" style="shape=partialRectangle;collapsible=0;dropTarget=0;pointerEvents=0;fillColor=none;top=0;left=0;bottom=0;right=0;points=[[0,0.5],[1,0.5]];portConstraint=eastwest;" vertex="1" parent="V22qCot4A9_ZoTTdL6wH-27">
          <mxGeometry y="90" width="180" height="30" as="geometry" />
        </mxCell>
        <mxCell id="V22qCot4A9_ZoTTdL6wH-35" value="" style="shape=partialRectangle;connectable=0;fillColor=none;top=0;left=0;bottom=0;right=0;editable=1;overflow=hidden;" vertex="1" parent="V22qCot4A9_ZoTTdL6wH-34">
          <mxGeometry width="30" height="30" as="geometry" />
        </mxCell>
        <mxCell id="V22qCot4A9_ZoTTdL6wH-36" value="ESPECIFICACION" style="shape=partialRectangle;connectable=0;fillColor=none;top=0;left=0;bottom=0;right=0;align=left;spacingLeft=6;overflow=hidden;" vertex="1" parent="V22qCot4A9_ZoTTdL6wH-34">
          <mxGeometry x="30" width="150" height="30" as="geometry" />
        </mxCell>
        <mxCell id="V22qCot4A9_ZoTTdL6wH-53" value="APARATO_COMPONENTE" style="shape=table;startSize=30;container=1;collapsible=1;childLayout=tableLayout;fixedRows=1;rowLines=0;fontStyle=1;align=center;resizeLast=1;" vertex="1" parent="1">
          <mxGeometry x="130" y="240" width="180" height="160" as="geometry" />
        </mxCell>
        <mxCell id="V22qCot4A9_ZoTTdL6wH-54" value="" style="shape=partialRectangle;collapsible=0;dropTarget=0;pointerEvents=0;fillColor=none;top=0;left=0;bottom=0;right=0;points=[[0,0.5],[1,0.5]];portConstraint=eastwest;" vertex="1" parent="V22qCot4A9_ZoTTdL6wH-53">
          <mxGeometry y="30" width="180" height="30" as="geometry" />
        </mxCell>
        <mxCell id="V22qCot4A9_ZoTTdL6wH-55" value="FK1" style="shape=partialRectangle;connectable=0;fillColor=none;top=0;left=0;bottom=0;right=0;fontStyle=1;overflow=hidden;" vertex="1" parent="V22qCot4A9_ZoTTdL6wH-54">
          <mxGeometry width="60" height="30" as="geometry" />
        </mxCell>
        <mxCell id="V22qCot4A9_ZoTTdL6wH-56" value="COD_APARATO" style="shape=partialRectangle;connectable=0;fillColor=none;top=0;left=0;bottom=0;right=0;align=left;spacingLeft=6;fontStyle=5;overflow=hidden;" vertex="1" parent="V22qCot4A9_ZoTTdL6wH-54">
          <mxGeometry x="60" width="120" height="30" as="geometry" />
        </mxCell>
        <mxCell id="V22qCot4A9_ZoTTdL6wH-57" value="" style="shape=partialRectangle;collapsible=0;dropTarget=0;pointerEvents=0;fillColor=none;top=0;left=0;bottom=1;right=0;points=[[0,0.5],[1,0.5]];portConstraint=eastwest;" vertex="1" parent="V22qCot4A9_ZoTTdL6wH-53">
          <mxGeometry y="60" width="180" height="30" as="geometry" />
        </mxCell>
        <mxCell id="V22qCot4A9_ZoTTdL6wH-58" value="FK2" style="shape=partialRectangle;connectable=0;fillColor=none;top=0;left=0;bottom=0;right=0;fontStyle=1;overflow=hidden;" vertex="1" parent="V22qCot4A9_ZoTTdL6wH-57">
          <mxGeometry width="60" height="30" as="geometry" />
        </mxCell>
        <mxCell id="V22qCot4A9_ZoTTdL6wH-59" value="ID_COMPONENTES" style="shape=partialRectangle;connectable=0;fillColor=none;top=0;left=0;bottom=0;right=0;align=left;spacingLeft=6;fontStyle=5;overflow=hidden;" vertex="1" parent="V22qCot4A9_ZoTTdL6wH-57">
          <mxGeometry x="60" width="120" height="30" as="geometry" />
        </mxCell>
        <mxCell id="V22qCot4A9_ZoTTdL6wH-60" value="" style="shape=partialRectangle;collapsible=0;dropTarget=0;pointerEvents=0;fillColor=none;top=0;left=0;bottom=0;right=0;points=[[0,0.5],[1,0.5]];portConstraint=eastwest;" vertex="1" parent="V22qCot4A9_ZoTTdL6wH-53">
          <mxGeometry y="90" width="180" height="30" as="geometry" />
        </mxCell>
        <mxCell id="V22qCot4A9_ZoTTdL6wH-61" value="" style="shape=partialRectangle;connectable=0;fillColor=none;top=0;left=0;bottom=0;right=0;editable=1;overflow=hidden;" vertex="1" parent="V22qCot4A9_ZoTTdL6wH-60">
          <mxGeometry width="60" height="30" as="geometry" />
        </mxCell>
        <mxCell id="V22qCot4A9_ZoTTdL6wH-62" value="CANTIDAD" style="shape=partialRectangle;connectable=0;fillColor=none;top=0;left=0;bottom=0;right=0;align=left;spacingLeft=6;overflow=hidden;" vertex="1" parent="V22qCot4A9_ZoTTdL6wH-60">
          <mxGeometry x="60" width="120" height="30" as="geometry" />
        </mxCell>
        <mxCell id="V22qCot4A9_ZoTTdL6wH-63" value="" style="shape=partialRectangle;collapsible=0;dropTarget=0;pointerEvents=0;fillColor=none;top=0;left=0;bottom=0;right=0;points=[[0,0.5],[1,0.5]];portConstraint=eastwest;" vertex="1" parent="V22qCot4A9_ZoTTdL6wH-53">
          <mxGeometry y="120" width="180" height="30" as="geometry" />
        </mxCell>
        <mxCell id="V22qCot4A9_ZoTTdL6wH-64" value="" style="shape=partialRectangle;connectable=0;fillColor=none;top=0;left=0;bottom=0;right=0;editable=1;overflow=hidden;" vertex="1" parent="V22qCot4A9_ZoTTdL6wH-63">
          <mxGeometry width="60" height="30" as="geometry" />
        </mxCell>
        <mxCell id="V22qCot4A9_ZoTTdL6wH-65" value="PRECIO" style="shape=partialRectangle;connectable=0;fillColor=none;top=0;left=0;bottom=0;right=0;align=left;spacingLeft=6;overflow=hidden;" vertex="1" parent="V22qCot4A9_ZoTTdL6wH-63">
          <mxGeometry x="60" width="120" height="30" as="geometry" />
        </mxCell>
        <mxCell id="V22qCot4A9_ZoTTdL6wH-66" value="" style="edgeStyle=entityRelationEdgeStyle;fontSize=12;html=1;endArrow=ERoneToMany;startArrow=ERmandOne;" edge="1" parent="1" target="V22qCot4A9_ZoTTdL6wH-31">
          <mxGeometry width="100" height="100" relative="1" as="geometry">
            <mxPoint x="620" y="355" as="sourcePoint" />
            <mxPoint x="740" y="230" as="targetPoint" />
          </mxGeometry>
        </mxCell>
        <mxCell id="V22qCot4A9_ZoTTdL6wH-67" value="" style="edgeStyle=entityRelationEdgeStyle;fontSize=12;html=1;endArrow=ERoneToMany;startArrow=ERmandOne;" edge="1" parent="1" source="V22qCot4A9_ZoTTdL6wH-41" target="V22qCot4A9_ZoTTdL6wH-21">
          <mxGeometry width="100" height="100" relative="1" as="geometry">
            <mxPoint x="520" y="280" as="sourcePoint" />
            <mxPoint x="620" y="180" as="targetPoint" />
          </mxGeometry>
        </mxCell>
        <mxCell id="V22qCot4A9_ZoTTdL6wH-68" value="" style="edgeStyle=entityRelationEdgeStyle;fontSize=12;html=1;endArrow=ERoneToMany;startArrow=ERmandOne;exitX=0.045;exitY=1.082;exitDx=0;exitDy=0;exitPerimeter=0;" edge="1" parent="1" source="V22qCot4A9_ZoTTdL6wH-21" target="V22qCot4A9_ZoTTdL6wH-54">
          <mxGeometry width="100" height="100" relative="1" as="geometry">
            <mxPoint x="520" y="280" as="sourcePoint" />
            <mxPoint x="620" y="180" as="targetPoint" />
          </mxGeometry>
        </mxCell>
        <mxCell id="V22qCot4A9_ZoTTdL6wH-69" value="" style="edgeStyle=entityRelationEdgeStyle;fontSize=12;html=1;endArrow=ERoneToMany;startArrow=ERmandOne;" edge="1" parent="1" source="V22qCot4A9_ZoTTdL6wH-31" target="V22qCot4A9_ZoTTdL6wH-53">
          <mxGeometry width="100" height="100" relative="1" as="geometry">
            <mxPoint x="520" y="280" as="sourcePoint" />
            <mxPoint x="620" y="180" as="targetPoint" />
          </mxGeometry>
        </mxCell>
        <mxCell id="V22qCot4A9_ZoTTdL6wH-70" value="CID_FAB" style="text;html=1;align=center;verticalAlign=middle;resizable=0;points=[];autosize=1;" vertex="1" parent="1">
          <mxGeometry x="405" y="400" width="70" height="20" as="geometry" />
        </mxCell>
        <mxCell id="V22qCot4A9_ZoTTdL6wH-71" value="FK" style="text;html=1;align=center;verticalAlign=middle;resizable=0;points=[];autosize=1;" vertex="1" parent="1">
          <mxGeometry x="375" y="400" width="30" height="20" as="geometry" />
        </mxCell>
      </root>
    </mxGraphModel>
  </diagram>
</mxfile>
